<?xml version="1.0" standalone="no"?>
<!DOCTYPE svg PUBLIC "-//W3C//DTD SVG 20010904//EN"
 "http://www.w3.org/TR/2001/REC-SVG-20010904/DTD/svg10.dtd">
<svg version="1.0" xmlns="http://www.w3.org/2000/svg"
 width="512.000000pt" height="512.000000pt" viewBox="0 0 512.000000 512.000000"
 preserveAspectRatio="xMidYMid meet">
<metadata>
Created by potrace 1.16, written by Peter Selinger 2001-2019
</metadata>
<g transform="translate(0.000000,512.000000) scale(0.100000,-0.100000)"
fill="#000000" stroke="none">
<path d="M2955 3596 c-40 -19 -168 -142 -621 -597 l-572 -574 -137 -412 c-128
-386 -136 -415 -125 -448 15 -45 44 -65 95 -65 25 0 191 50 435 131 l395 131
574 572 c627 625 621 617 621 730 0 113 -6 123 -209 329 -114 115 -201 195
-226 207 -60 29 -164 27 -230 -4z m198 -225 l47 -46 -289 -290 c-160 -159
-295 -303 -301 -318 -14 -39 -3 -72 32 -102 64 -54 62 -55 388 270 162 162
300 295 305 295 5 0 26 -17 47 -37 30 -29 38 -45 38 -72 0 -34 -29 -65 -517
-553 -285 -285 -522 -518 -528 -518 -13 0 -375 362 -375 375 0 17 1034 1043
1055 1047 31 7 46 -1 98 -51z m-969 -1470 c-7 -8 -427 -151 -431 -147 -2 2 96
294 143 425 3 10 52 -32 149 -129 79 -79 142 -146 139 -149z"/>
</g>
</svg>
